<svg width="64" height="57" viewBox="0 0 64 57" fill="none" xmlns="http://www.w3.org/2000/svg">
<path fill-rule="evenodd" clip-rule="evenodd" d="M31.9334 29.982C40.0028 30.0079 46.5499 27.8465 46.5567 25.1543C46.558 24.649 46.3288 24.1609 45.9022 23.7012C52.0252 26.6322 56.0137 31.4348 56 36.8502C55.9774 45.7252 45.214 52.8852 31.9591 52.8425C18.7043 52.7998 7.97747 45.5706 8.00004 36.6956C8.01358 31.3669 11.8994 26.6564 17.8717 23.752C17.523 24.1677 17.336 24.6064 17.3348 25.0602C17.328 27.7524 23.864 29.956 31.9334 29.982Z" fill="#006A64"/>
<ellipse cx="21.372" cy="23.213" rx="1.48577" ry="0.836079" fill="#F47745"/>
<ellipse cx="4.42705" cy="1.34926" rx="4.42705" ry="1.34926" transform="matrix(-0.233382 -0.972385 0.956765 -0.290861 19.4763 22.8535)" fill="#F47745"/>
<ellipse cx="4.42425" cy="1.35031" rx="4.42425" ry="1.35031" transform="matrix(-0.243507 0.969899 0.952974 0.303052 19.5646 23.4941)" fill="#F47745"/>
<ellipse cx="4.40715" cy="1.35666" rx="4.40715" ry="1.35666" transform="matrix(0.298197 -0.954504 -0.929846 -0.367949 23.3998 22.873)" fill="#F47745"/>
<ellipse cx="4.42208" cy="1.35112" rx="4.42208" ry="1.35112" transform="matrix(0.251045 0.967975 0.950051 -0.312094 20.8767 24.4316)" fill="#F47745"/>
<ellipse cx="3.95267" cy="1.46592" rx="3.95267" ry="1.46592" transform="matrix(0.897409 -0.441199 0.449814 0.893122 22.3625 21.4082)" fill="#F47745"/>
<ellipse cx="3.95267" cy="1.46592" rx="3.95267" ry="1.46592" transform="matrix(-0.897409 -0.441199 -0.449814 0.893122 20.4247 21.4082)" fill="#F47745"/>
<ellipse cx="3.95591" cy="1.479" rx="3.95591" ry="1.479" transform="matrix(0.934204 0.35674 -0.364307 0.931279 23.4402 22.377)" fill="#F47745"/>
<ellipse cx="3.95591" cy="1.479" rx="3.95591" ry="1.479" transform="matrix(-0.934204 0.35674 0.364307 0.931279 19.3534 22.377)" fill="#F47745"/>
<ellipse cx="1.50112" cy="0.758371" rx="1.50112" ry="0.758371" transform="matrix(0.959804 -0.289781 0.222979 0.973108 32.1418 27.9336)" fill="#F47745"/>
<ellipse cx="4.32436" cy="1.36777" rx="4.32436" ry="1.36777" transform="matrix(-0.436337 -0.885927 0.821908 -0.599675 31.9574 28.3398)" fill="#F47745"/>
<ellipse cx="4.44394" cy="1.46784" rx="4.44394" ry="1.46784" transform="matrix(0.0276351 1.00758 0.989644 -0.0440379 31.5571 29.0723)" fill="#F47745"/>
<ellipse cx="4.53449" cy="1.6646" rx="4.53449" ry="1.6646" transform="matrix(0.0377077 -1.01023 -0.98772 -0.0178152 36.3024 27.416)" fill="#F47745"/>
<ellipse cx="4.32085" cy="1.3728" rx="4.32085" ry="1.3728" transform="matrix(0.453243 0.87648 0.808988 -0.618249 33.4979 29.8027)" fill="#F47745"/>
<ellipse cx="4.01992" cy="1.38641" rx="4.01992" ry="1.38641" transform="matrix(0.768337 -0.671169 0.67742 0.704814 34.3777 26.5234)" fill="#F47745"/>
<ellipse cx="4.04024" cy="1.83578" rx="4.04024" ry="1.83578" transform="matrix(-0.977984 -0.10982 -0.131296 1.00631 32.4843 25.8789)" fill="#F47745"/>
<ellipse cx="4.00959" cy="1.84892" rx="4.00959" ry="1.84892" transform="matrix(0.987205 0.0257463 -0.100298 1.00862 35.4535 26.9258)" fill="#F47745"/>
<ellipse cx="4.02023" cy="1.37924" rx="4.02023" ry="1.37924" transform="matrix(-0.821747 0.599912 0.599823 0.775353 31.5408 27.9023)" fill="#F47745"/>
<ellipse cx="1.50647" cy="0.759252" rx="1.50647" ry="0.759252" transform="matrix(0.952246 0.314305 -0.243589 0.968019 42.6909 18.8418)" fill="#F47745"/>
<ellipse cx="4.34278" cy="1.20171" rx="4.34278" ry="1.20171" transform="matrix(0.0574447 -1.00679 0.985952 0.101958 41.9794 18.9492)" fill="#F47745"/>
<ellipse cx="4.3161" cy="1.38019" rx="4.3161" ry="1.38019" transform="matrix(-0.465701 0.868711 0.799916 0.632422 42.2458 19.8398)" fill="#F47745"/>
<ellipse cx="4.30427" cy="1.39678" rx="4.30427" ry="1.39678" transform="matrix(0.51718 -0.835881 -0.756577 -0.687238 45.8552 20.2598)" fill="#F47745"/>
<ellipse cx="4.39239" cy="1.33701" rx="4.39239" ry="1.33701" transform="matrix(-0.0440504 1.00816 0.987098 0.0701388 43.5903 20.9648)" fill="#F47745"/>
<ellipse cx="4.04294" cy="1.86702" rx="4.04294" ry="1.86702" transform="matrix(0.979711 -0.076773 0.116425 1.01005 45.2832 17.6816)" fill="#F47745"/>
<ellipse cx="4.02805" cy="1.38747" rx="4.02805" ry="1.38747" transform="matrix(-0.752879 -0.691546 -0.6938 0.68519 43.4005 18.3301)" fill="#F47745"/>
<ellipse cx="4.02914" cy="1.37992" rx="4.02914" ry="1.37992" transform="matrix(0.807763 0.621539 -0.617531 0.758526 46.2031 19.7871)" fill="#F47745"/>
<ellipse cx="3.99244" cy="1.81795" rx="3.99244" ry="1.81795" transform="matrix(-0.985791 0.00738357 0.101921 1.01099 42.2518 18.6973)" fill="#F47745"/>
<ellipse cx="1.48422" cy="0.830227" rx="1.48422" ry="0.830227" transform="matrix(0.999951 0.0104385 -0.00707954 0.999972 29.4491 13.8125)" fill="#F47745"/>
<ellipse cx="4.43088" cy="1.35282" rx="4.43088" ry="1.35282" transform="matrix(-0.227023 -0.974206 0.959585 -0.280087 29.0232 14.2852)" fill="#F47745"/>
<ellipse cx="4.4205" cy="1.34725" rx="4.4205" ry="1.34725" transform="matrix(-0.249785 0.967967 0.949932 0.313731 29.1284 14.9219)" fill="#F47745"/>
<ellipse cx="4.40362" cy="1.35441" rx="4.40362" ry="1.35441" transform="matrix(0.304345 -0.952153 -0.926161 -0.378378 32.9479 14.3281)" fill="#F47745"/>
<ellipse cx="4.42583" cy="1.35438" rx="4.42583" ry="1.35438" transform="matrix(0.244732 0.969931 0.953084 -0.301384 30.4259 15.8594)" fill="#F47745"/>
<ellipse cx="3.95179" cy="1.47168" rx="3.95179" ry="1.47168" transform="matrix(0.900557 -0.433496 0.441603 0.897818 31.9271 12.8398)" fill="#F47745"/>
<ellipse cx="3.95366" cy="1.4604" rx="3.95366" ry="1.4604" transform="matrix(-0.89423 -0.448817 -0.457943 0.888361 29.9894 12.8613)" fill="#F47745"/>
<ellipse cx="3.95645" cy="1.47223" rx="3.95645" ry="1.47223" transform="matrix(0.931555 0.364855 -0.372594 0.927491 33.0051 13.8379)" fill="#F47745"/>
<ellipse cx="3.95551" cy="1.48608" rx="3.95551" ry="1.48608" transform="matrix(-0.936817 0.348525 0.355936 0.935002 28.9187 13.8066)" fill="#F47745"/>
</svg>
