<svg width="64" height="57" viewBox="0 0 64 57" fill="none" xmlns="http://www.w3.org/2000/svg">
<path d="M36.9363 42.6402C36.9363 45.3237 34.0234 47.4991 30.4302 47.4991C26.837 47.4991 23.9241 45.3237 23.9241 42.6402C23.9241 39.9567 26.837 37.7812 30.4302 37.7812C34.0234 37.7812 36.9363 39.9567 36.9363 42.6402Z" fill="#AB8969"/>
<path d="M36.9363 42.6402C36.9363 45.3237 34.0234 47.4991 30.4302 47.4991C26.837 47.4991 23.9241 45.3237 23.9241 42.6402V44.686C25.5971 50.2269 35.3562 50.2269 36.9363 44.686V42.6402Z" fill="#66432B"/>
<path d="M33.602 34.8609C33.602 37.5444 30.6891 39.7198 27.0958 39.7198C23.5026 39.7198 20.5897 37.5444 20.5897 34.8609C20.5897 32.1774 23.5026 30.002 27.0958 30.002C30.6891 30.002 33.602 32.1774 33.602 34.8609Z" fill="#AB8969"/>
<path d="M33.602 34.8609C33.602 37.5444 30.6891 39.7198 27.0958 39.7198C23.5026 39.7198 20.5897 37.5444 20.5897 34.8609V36.9067C22.2627 42.4476 32.0219 42.4476 33.602 36.9067V34.8609Z" fill="#66432B"/>
<path d="M39.1592 29.2613C39.1592 31.9448 36.2463 34.1202 32.6531 34.1202C29.0599 34.1202 26.147 31.9448 26.147 29.2613C26.147 26.5778 29.0599 24.4023 32.6531 24.4023C36.2463 24.4023 39.1592 26.5778 39.1592 29.2613Z" fill="#AB8969"/>
<path d="M39.1592 29.2613C39.1592 31.9448 36.2463 34.1202 32.6531 34.1202C29.0599 34.1202 26.147 31.9448 26.147 29.2613V31.3071C27.82 36.848 37.5792 36.848 39.1592 31.3071V29.2613Z" fill="#66432B"/>
<path d="M38.0478 20.2886C38.0478 22.9721 35.1349 25.1475 31.5416 25.1475C27.9484 25.1475 25.0355 22.9721 25.0355 20.2886C25.0355 17.6051 27.9484 15.4297 31.5416 15.4297C35.1349 15.4297 38.0478 17.6051 38.0478 20.2886Z" fill="#AB8969"/>
<path d="M38.0478 20.2886C38.0478 22.9721 35.1349 25.1475 31.5416 25.1475C27.9484 25.1475 25.0355 22.9721 25.0355 20.2886V22.3345C26.7085 27.8753 36.4677 27.8753 38.0478 22.3345V20.2886Z" fill="#66432B"/>
<path d="M43.6051 13.7007C43.6051 16.3842 40.6922 18.5596 37.099 18.5596C33.5058 18.5596 30.5929 16.3842 30.5929 13.7007C30.5929 11.0172 33.5058 8.8418 37.099 8.8418C40.6922 8.8418 43.6051 11.0172 43.6051 13.7007Z" fill="#AB8969"/>
<path d="M43.6051 13.7007C43.6051 16.3842 40.6922 18.5596 37.099 18.5596C33.5058 18.5596 30.5929 16.3842 30.5929 13.7007V15.7466C32.2659 21.2874 42.0251 21.2874 43.6051 15.7466V13.7007Z" fill="#66432B"/>
</svg>
