<svg width="64" height="57" viewBox="0 0 64 57" fill="none" xmlns="http://www.w3.org/2000/svg">
<rect x="11.3674" y="20" width="40.5612" height="26.3265" fill="#FFF8EF"/>
<path d="M19.8365 19.9313C19.8365 20.9675 19.9897 21.9935 20.2874 22.9508C20.5851 23.9081 21.0215 24.7779 21.5716 25.5106C22.1217 26.2433 22.7748 26.8245 23.4935 27.221C24.2122 27.6175 24.9826 27.8216 25.7605 27.8216C26.5385 27.8216 27.3088 27.6175 28.0276 27.221C28.7463 26.8245 29.3994 26.2433 29.9495 25.5106C30.4996 24.7779 30.9359 23.9081 31.2336 22.9508C31.5313 21.9935 31.6846 20.9675 31.6846 19.9313L25.7605 19.9313L19.8365 19.9313Z" fill="#F47745"/>
<path d="M8.00006 19.9313C8.00006 20.9675 8.15329 21.9935 8.45101 22.9508C8.74872 23.9081 9.18508 24.7779 9.73518 25.5106C10.2853 26.2433 10.9383 26.8245 11.6571 27.221C12.3758 27.6175 13.1461 27.8216 13.9241 27.8216C14.7021 27.8216 15.4724 27.6175 16.1911 27.221C16.9099 26.8245 17.5629 26.2433 18.113 25.5106C18.6631 24.7779 19.0995 23.9081 19.3972 22.9508C19.6949 21.9935 19.8481 20.9675 19.8481 19.9313L13.9241 19.9313L8.00006 19.9313Z" fill="#F47745"/>
<path d="M43.5326 19.9313C43.5326 20.9675 43.3794 21.9935 43.0817 22.9508C42.784 23.9081 42.3476 24.7779 41.7975 25.5106C41.2474 26.2433 40.5944 26.8245 39.8756 27.221C39.1569 27.6175 38.3866 27.8216 37.6086 27.8216C36.8307 27.8216 36.0603 27.6175 35.3416 27.221C34.6228 26.8245 33.9698 26.2433 33.4197 25.5106C32.8696 24.7779 32.4332 23.9081 32.1355 22.9508C31.8378 21.9935 31.6846 20.9675 31.6846 19.9313L37.6086 19.9313H43.5326Z" fill="#F47745"/>
<path d="M55.3583 19.9313C55.3583 20.9675 55.2051 21.9935 54.9074 22.9508C54.6097 23.9081 54.1733 24.7779 53.6232 25.5106C53.0731 26.2433 52.4201 26.8245 51.7013 27.221C50.9826 27.6175 50.2122 27.8216 49.4343 27.8216C48.6563 27.8216 47.886 27.6175 47.1673 27.221C46.4485 26.8245 45.7955 26.2433 45.2454 25.5106C44.6953 24.7779 44.2589 23.9081 43.9612 22.9508C43.6635 21.9935 43.5103 20.9675 43.5103 19.9313L49.4343 19.9313H55.3583Z" fill="#F47745"/>
<path d="M13.8289 12.041H49.4156L55.449 20.0002H8L13.8289 12.041Z" fill="#F47745"/>
<rect x="17.0305" y="31.7852" width="8.72449" height="14.3878" rx="0.510204" fill="#BBE0BF"/>
<rect x="29.7349" y="31.7852" width="17.7551" height="10.2551" rx="0.510204" fill="#BBE0BF"/>
</svg>
