<svg width="140" height="39" viewBox="0 0 140 39" fill="none" xmlns="http://www.w3.org/2000/svg">
<path d="M0 5.36172C0 5.07683 0.0876582 4.83029 0.262975 4.62211C0.449248 4.41392 0.668394 4.30982 0.920411 4.30982H15.3676C15.6525 4.30982 15.8661 4.40296 16.0086 4.58923C16.162 4.76455 16.2387 4.98369 16.2387 5.24667V7.02173C16.2387 7.27375 16.162 7.49289 16.0086 7.67916C15.8661 7.85448 15.6525 7.94214 15.3676 7.94214H4.12541V15.141H13.0665C13.3514 15.141 13.5651 15.2341 13.7075 15.4204C13.8609 15.5957 13.9376 15.8149 13.9376 16.0779V17.8529C13.9376 18.1049 13.8609 18.3241 13.7075 18.5104C13.5651 18.6857 13.3514 18.7733 13.0665 18.7733H4.12541V25.8736H15.4498C15.7346 25.8736 15.9483 25.9667 16.0908 26.153C16.2442 26.3283 16.3209 26.5475 16.3209 26.8104V28.5855C16.3209 28.8375 16.2442 29.0567 16.0908 29.2429C15.9483 29.4182 15.7346 29.5059 15.4498 29.5059H0.903975C0.651958 29.5059 0.438291 29.4018 0.262975 29.1936C0.0876582 28.9854 0 28.7389 0 28.454V5.36172Z" fill="#006A64"/>
<path d="M33.0994 18.2803C32.2009 18.2803 31.7517 17.8365 31.7517 16.949C31.7517 15.9299 31.4394 15.152 30.8148 14.6151C30.2779 14.1439 29.5547 13.9083 28.6453 13.9083C27.7468 13.9083 27.0017 14.0946 26.41 14.4671C25.8183 14.8397 25.3362 15.3163 24.9636 15.8971C24.2405 17.0366 23.8789 18.4063 23.8789 20.006C23.8789 22.9973 24.7883 24.9587 26.6072 25.89C27.2647 26.2297 27.9933 26.3995 28.7932 26.3995C29.5931 26.3995 30.2505 26.3119 30.7655 26.1366C31.2805 25.9612 31.7407 25.7695 32.1461 25.5613C32.5516 25.3531 32.9022 25.1614 33.198 24.9861C33.5048 24.8107 33.7569 24.7231 33.9541 24.7231C34.3486 24.7231 34.6608 24.9039 34.8909 25.2655L35.2525 25.8736C35.4169 26.1585 35.4991 26.4379 35.4991 26.7118C35.4991 26.9748 35.3895 27.2542 35.1703 27.55C34.9512 27.8349 34.6554 28.0979 34.2828 28.339C33.9212 28.58 33.5048 28.7992 33.0337 28.9964C32.5625 29.1936 32.0749 29.3635 31.5709 29.5059C29.1603 30.1524 26.9579 30.0538 24.9636 29.2101C22.7284 28.2677 21.1889 26.5803 20.3452 24.1478C19.9288 22.9425 19.7206 21.5948 19.7206 20.1046C19.7206 18.6144 19.9397 17.2777 20.378 16.0943C20.8273 14.9109 21.4464 13.9083 22.2353 13.0865C23.8679 11.3991 25.9991 10.5554 28.6289 10.5554C30.9518 10.5554 32.7324 11.1636 33.9705 12.3798C35.0115 13.4207 35.5319 14.7246 35.5319 16.2915C35.5319 17.6173 34.8526 18.2803 33.4939 18.2803H33.0994Z" fill="#006A64"/>
<path d="M38.5208 20.1704C38.5208 18.7459 38.7564 17.442 39.2275 16.2586C39.7096 15.0643 40.3671 14.0453 41.1998 13.2016C42.942 11.4375 45.139 10.5554 47.7906 10.5554C50.76 10.5554 53.0611 11.4375 54.6937 13.2016C56.2716 14.9 57.0605 17.2338 57.0605 20.2032C57.0605 23.074 56.1675 25.4189 54.3814 27.2378C52.6392 29.0238 50.4423 29.9168 47.7906 29.9168C44.9965 29.9168 42.7503 29.0019 41.0519 27.172C39.3645 25.386 38.5208 23.0521 38.5208 20.1704ZM43.7967 15.9957C43.3913 16.5983 43.0954 17.2886 42.9092 18.0666C42.7229 18.8336 42.6297 19.617 42.6297 20.4169C42.6297 21.2058 42.7338 21.9673 42.942 22.7015C43.1612 23.4247 43.4844 24.0711 43.9118 24.6409C44.8541 25.89 46.1689 26.5146 47.8564 26.5146C49.5767 26.5146 50.8806 25.901 51.7681 24.6738C52.557 23.6 52.9515 22.1372 52.9515 20.2854C52.9515 17.5132 52.042 15.6012 50.2231 14.5493C49.5547 14.1658 48.7439 13.9741 47.7906 13.9741C46.8483 13.9741 46.0484 14.1603 45.391 14.5329C44.7445 14.8945 44.2131 15.3821 43.7967 15.9957Z" fill="#006A64"/>
<path d="M65.2266 24.9861C65.2266 25.764 65.5006 26.153 66.0484 26.153C66.2237 26.153 66.4484 26.1037 66.7223 26.0051C67.2263 25.8188 67.5331 25.7257 67.6427 25.7257C67.8947 25.7257 68.0919 25.8845 68.2344 26.2023L68.7439 27.3692C68.8097 27.5336 68.8425 27.687 68.8425 27.8294C68.8425 28.0815 68.6343 28.3883 68.218 28.7499C67.3852 29.4402 66.295 29.7853 64.9472 29.7853C62.4928 29.7853 61.2656 28.1472 61.2656 24.871V1.43356C61.2656 1.13772 61.3532 0.885701 61.5285 0.677514C61.7039 0.469328 61.912 0.365234 62.1531 0.365234H64.3555C64.6075 0.365234 64.8157 0.469328 64.9801 0.677514C65.1444 0.885701 65.2266 1.13772 65.2266 1.43356V24.9861Z" fill="#006A64"/>
<path d="M75.5788 24.9861C75.5788 25.764 75.8362 26.153 76.3512 26.153C76.5266 26.153 76.7238 26.1037 76.9429 26.0051C77.3703 25.8188 77.6606 25.7257 77.814 25.7257C78.0441 25.7257 78.2304 25.8845 78.3729 26.2023L78.8824 27.3528C78.97 27.5391 79.0139 27.7144 79.0139 27.8788C79.0139 28.3499 78.6084 28.7882 77.7976 29.1936C77.0306 29.5881 76.2691 29.7853 75.513 29.7853C74.7679 29.7853 74.1707 29.7031 73.7215 29.5388C73.2722 29.3744 72.8887 29.1005 72.571 28.717C71.9355 27.9281 71.6177 26.6461 71.6177 24.871V12.0511C71.6177 11.7443 71.7054 11.4868 71.8807 11.2786C72.056 11.0704 72.2642 10.9663 72.5052 10.9663H74.7076C74.9597 10.9663 75.1679 11.0704 75.3322 11.2786C75.4966 11.4868 75.5788 11.7443 75.5788 12.0511V24.9861Z" fill="#006A64"/>
<path d="M82.0849 12.1497C82.0849 11.3608 82.4629 10.9663 83.2189 10.9663H84.1229C84.7365 10.9663 85.1529 11.1964 85.3721 11.6566C85.6789 12.3141 85.9418 13.1797 86.161 14.2535C87.1471 12.4565 88.6154 11.306 90.5658 10.802C91.1794 10.6376 91.9409 10.5554 92.8504 10.5554C93.7708 10.5554 94.62 10.7527 95.398 11.1471C96.1759 11.5306 96.7895 12.062 97.2388 12.7414C98.0715 13.9796 98.4879 15.8039 98.4879 18.2145V28.4211C98.4879 28.7279 98.3893 28.9854 98.1921 29.1936C97.9948 29.4018 97.7045 29.5059 97.321 29.5059H95.7102C95.2939 29.5059 94.9871 29.4018 94.7898 29.1936C94.5926 28.9854 94.494 28.7279 94.494 28.4211V18.1981C94.494 15.393 93.464 13.9905 91.404 13.9905C90.1987 13.9905 89.0975 14.4945 88.1004 15.5026C87.0376 16.5874 86.5061 17.8474 86.5061 19.2828V28.4211C86.5061 28.7279 86.413 28.9854 86.2267 29.1936C86.0405 29.4018 85.7556 29.5059 85.3721 29.5059H83.6792C83.2957 29.5059 83.0053 29.4018 82.8081 29.1936C82.6108 28.9854 82.5122 28.7279 82.5122 28.4211V18.3296C82.5122 16.1272 82.441 14.5932 82.2985 13.7275C82.1561 12.851 82.0849 12.325 82.0849 12.1497Z" fill="#006A64"/>
<path d="M108.215 27.7473C109.245 27.2432 110.336 26.9912 111.486 26.9912C112.648 26.9912 113.678 27.1008 114.576 27.3199C115.486 27.5281 116.302 27.8623 117.025 28.3225C118.647 29.3525 119.458 30.7934 119.458 32.6451C119.458 34.5736 118.537 36.124 116.696 37.2965C115.064 38.3264 113.102 38.8414 110.812 38.8414C108.478 38.8414 106.534 38.3374 104.978 37.3293C103.301 36.2336 102.463 34.7434 102.463 32.8588C102.463 30.5687 103.674 28.3554 106.095 26.2187C107.038 25.3969 108.078 24.6573 109.218 23.9999C107.432 23.8355 105.909 23.2055 104.649 22.1098C103.235 20.8716 102.529 19.3321 102.529 17.4913C102.529 15.3766 103.323 13.6618 104.912 12.3469C106.369 11.1526 108.106 10.5554 110.122 10.5554C112.292 10.5554 113.995 11.1416 115.234 12.3141C115.617 12.6756 115.924 13.0865 116.154 13.5467C116.154 12.5387 116.023 11.4977 115.76 10.4239C115.508 9.33918 115.382 8.6927 115.382 8.48452C115.382 8.27633 115.42 8.11197 115.497 7.99144C115.584 7.85996 115.683 7.76134 115.792 7.6956C115.957 7.59698 116.143 7.54768 116.351 7.54768H117.765C118.674 7.54768 119.129 8.81323 119.129 11.3443C119.129 13.3714 118.723 15.2396 117.913 16.949C117.935 17.19 117.946 17.5078 117.946 17.9022C117.946 18.2967 117.858 18.7569 117.683 19.2828C117.507 19.8088 117.272 20.3019 116.976 20.7621C116.691 21.2113 116.357 21.6277 115.973 22.0112C115.601 22.3947 115.201 22.7508 114.773 23.0795C114.357 23.4082 113.935 23.7095 113.508 23.9835C111.108 25.5065 109.673 26.4598 109.202 26.8433C108.73 27.2158 108.402 27.5172 108.215 27.7473ZM107.459 20.1211C107.832 20.4388 108.265 20.6854 108.758 20.8607C109.262 21.025 109.793 21.1072 110.352 21.1072C110.922 21.1072 111.442 21.025 111.914 20.8607C112.385 20.6854 112.801 20.4333 113.163 20.1046C113.93 19.4143 114.313 18.5268 114.313 17.442C114.313 16.3353 113.886 15.4643 113.031 14.8287C112.275 14.2699 111.344 13.9905 110.237 13.9905C108.484 13.9905 107.273 14.6425 106.605 15.9464C106.386 16.3737 106.276 16.8723 106.276 17.442C106.276 18.0008 106.38 18.5049 106.588 18.9541C106.796 19.4034 107.087 19.7923 107.459 20.1211ZM106.67 30.7879C106.265 31.2481 106.062 31.7576 106.062 32.3164C106.062 32.8752 106.199 33.3519 106.473 33.7463C106.747 34.1408 107.109 34.4695 107.558 34.7325C108.424 35.2256 109.508 35.4721 110.812 35.4721C112.872 35.4721 114.308 34.9626 115.119 33.9436C115.382 33.6039 115.513 33.1766 115.513 32.6616C115.513 32.1466 115.349 31.7083 115.02 31.3467C114.702 30.9851 114.302 30.7057 113.82 30.5085C113.02 30.1798 111.979 30.0154 110.697 30.0154C108.725 30.0154 107.383 30.2729 106.67 30.7879Z" fill="#006A64"/>
<path d="M121.46 20.1704C121.46 18.7459 121.696 17.442 122.167 16.2586C122.649 15.0643 123.307 14.0453 124.139 13.2016C125.882 11.4375 128.079 10.5554 130.73 10.5554C133.7 10.5554 136.001 11.4375 137.633 13.2016C139.211 14.9 140 17.2338 140 20.2032C140 23.074 139.107 25.4189 137.321 27.2378C135.579 29.0238 133.382 29.9168 130.73 29.9168C127.936 29.9168 125.69 29.0019 123.991 27.172C122.304 25.386 121.46 23.0521 121.46 20.1704ZM126.736 15.9957C126.331 16.5983 126.035 17.2886 125.849 18.0666C125.662 18.8336 125.569 19.617 125.569 20.4169C125.569 21.2058 125.673 21.9673 125.882 22.7015C126.101 23.4247 126.424 24.0711 126.851 24.6409C127.794 25.89 129.108 26.5146 130.796 26.5146C132.516 26.5146 133.82 25.901 134.708 24.6738C135.497 23.6 135.891 22.1372 135.891 20.2854C135.891 17.5132 134.982 15.6012 133.163 14.5493C132.494 14.1658 131.683 13.9741 130.73 13.9741C129.788 13.9741 128.988 14.1603 128.331 14.5329C127.684 14.8945 127.153 15.3821 126.736 15.9957Z" fill="#006A64"/>
</svg>
